<svg width="18" height="22" viewBox="0 0 18 22" fill="none" xmlns="http://www.w3.org/2000/svg">
<path fill-rule="evenodd" clip-rule="evenodd" d="M9.93152 1.91447C11.3823 0.00927128 13.3991 0 13.3991 0C13.3991 0 13.6991 1.79119 12.2579 3.5167C10.719 5.3592 8.96988 5.05772 8.96988 5.05772C8.96988 5.05772 8.64144 3.60871 9.93152 1.91447ZM9.1544 6.31243C9.90077 6.31243 11.2859 5.29021 13.0888 5.29021C16.1923 5.29021 17.4132 7.49061 17.4132 7.49061C17.4132 7.49061 15.0253 8.70705 15.0253 11.6587C15.0253 14.9885 18 16.1361 18 16.1361C18 16.1361 15.9206 21.9677 13.1119 21.9677C11.8219 21.9677 10.819 21.1015 9.45981 21.1015C8.07471 21.1015 6.70018 22 5.80486 22C3.24017 22.0001 0 16.4682 0 12.0215C0 7.64657 2.74259 5.3515 5.31501 5.3515C6.9873 5.3515 8.28502 6.31243 9.1544 6.31243Z" fill="white"/>
</svg>
