<svg width="20" height="20" viewBox="0 0 20 20" fill="none" xmlns="http://www.w3.org/2000/svg">
<path fill-rule="evenodd" clip-rule="evenodd" d="M20 10C20 4.47758 15.5224 0 10 0C4.47758 0 0 4.47758 0 10C0 14.9908 3.65634 19.1281 8.43765 19.8791V12.8913H5.8979V10H8.43765V7.79635C8.43765 5.29035 9.9311 3.90517 12.2149 3.90517C13.3089 3.90517 14.4537 4.10064 14.4537 4.10064V6.56165H13.1922C11.9505 6.56165 11.5623 7.33229 11.5623 8.124V9.99992H14.3355L13.8925 12.8912H11.5623V19.879C16.3436 19.1294 19.9999 14.9922 19.9999 9.99992L20 10Z" fill="#1977F3"/>
<path fill-rule="evenodd" clip-rule="evenodd" d="M13.8926 12.8912L14.3356 9.99993H11.5625V8.12401C11.5625 7.33369 11.9492 6.56166 13.1923 6.56166H14.4538V4.10065C14.4538 4.10065 13.3091 3.90518 12.215 3.90518C9.93121 3.90518 8.43776 5.28898 8.43776 7.79636V10H5.89801V12.8913H8.43776V19.8791C8.94681 19.9592 9.46854 20 10.0001 20C10.5317 20 11.0534 19.9578 11.5625 19.8791V12.8913H13.8927L13.8926 12.8912Z" fill="#FEFEFE"/>
</svg>
