<svg width="39" height="39" viewBox="0 0 39 39" fill="none" xmlns="http://www.w3.org/2000/svg">
<path fill-rule="evenodd" clip-rule="evenodd" d="M19.5 0C8.73043 0 0 8.73043 0 19.5C0 30.2696 8.73043 39 19.5 39C30.2696 39 39 30.2696 39 19.5C39 8.73043 30.2696 0 19.5 0ZM28.4421 28.1246C28.0939 28.7012 27.3446 28.8795 26.7707 28.5313C22.1938 25.7316 16.4301 25.0993 9.64136 26.6509C8.98671 26.7986 8.33486 26.3891 8.18721 25.7372C8.03678 25.0826 8.4435 24.4307 9.10093 24.2803C16.5276 22.5838 22.9014 23.3136 28.041 26.4531C28.6121 26.8041 28.7931 27.5535 28.4421 28.1246ZM30.8295 22.815C30.3894 23.5309 29.4534 23.7566 28.7374 23.3164C23.4975 20.0961 15.5053 19.1629 9.30707 21.0433C8.502 21.2884 7.65236 20.8344 7.41 20.0321C7.16764 19.227 7.62171 18.3801 8.424 18.135C15.5053 15.9872 24.3109 17.0263 30.3281 20.7257C31.044 21.1659 31.2696 22.1019 30.8295 22.815ZM31.0356 17.2881C24.7483 13.5553 14.3799 13.2099 8.37943 15.0317C7.41836 15.3242 6.39878 14.781 6.10628 13.8171C5.81378 12.8533 6.357 11.8337 7.32086 11.5412C14.2099 9.45193 25.6592 9.85586 32.8965 14.1514C33.7629 14.664 34.047 15.7839 33.5344 16.6502C33.0191 17.5166 31.8992 17.8007 31.0356 17.2881Z" fill="white"/>
</svg>
